<svg id="svg" version="1.1" xmlns="http://www.w3.org/2000/svg" xmlns:xlink="http://www.w3.org/1999/xlink" width="400" height="274.2857142857143" viewBox="0, 0, 400,274.2857142857143"><g id="svgg"><path id="path0" d="M124.442 62.510 C 122.061 63.154,121.765 63.536,121.868 65.843 C 121.964 67.983,122.625 68.184,124.530 66.653 C 130.697 61.697,145.259 73.031,158.264 92.908 C 168.726 108.899,180.796 128.195,180.796 128.932 C 180.796 130.971,172.124 138.996,167.466 141.267 C 158.327 145.723,148.265 142.855,154.056 137.444 C 158.879 132.937,153.048 125.347,147.434 128.824 C 144.522 130.627,143.257 137.760,145.184 141.508 C 149.233 149.380,169.962 148.129,183.265 139.211 C 184.396 138.452,185.472 137.741,185.654 137.631 C 185.873 137.498,186.718 138.524,188.152 140.663 C 190.697 144.461,191.091 144.720,195.014 145.174 C 202.282 146.015,203.049 144.075,197.959 137.723 C 195.769 134.990,193.277 130.860,193.576 130.458 C 193.714 130.272,195.010 128.651,196.456 126.857 C 197.901 125.062,200.095 122.082,201.331 120.233 C 203.320 117.257,204.115 116.362,204.115 117.098 C 204.115 117.579,208.395 123.696,210.923 126.827 C 212.384 128.638,213.693 130.272,213.832 130.458 C 214.129 130.858,211.659 134.958,209.432 137.758 C 204.367 144.128,205.121 146.015,212.394 145.174 C 216.285 144.723,216.662 144.476,219.236 140.678 C 220.698 138.521,221.540 137.509,221.758 137.650 C 221.938 137.765,222.982 138.447,224.078 139.164 C 237.956 148.243,258.141 149.443,262.261 141.434 C 263.166 139.676,263.264 135.056,262.455 132.373 C 260.303 125.239,250.186 127.426,251.814 134.673 C 252.091 135.903,252.181 136.052,254.001 138.290 C 257.755 142.904,249.683 145.281,241.490 141.975 C 236.427 139.931,226.612 131.343,226.612 128.956 C 226.612 128.484,229.536 123.524,232.928 118.244 C 234.236 116.207,237.778 110.652,240.799 105.898 C 250.487 90.654,251.339 89.353,253.659 86.253 C 265.394 70.576,277.583 62.399,282.877 66.653 C 283.474 67.133,284.299 67.548,284.711 67.576 L 285.460 67.627 285.460 65.616 C 285.460 63.192,285.319 63.046,282.362 62.388 C 273.120 60.331,255.050 70.866,243.729 84.911 C 240.131 89.375,235.356 96.081,233.741 98.938 C 232.913 100.402,231.614 102.259,230.854 103.064 L 229.472 104.527 220.644 104.527 C 209.335 104.527,209.850 105.060,214.622 98.296 C 215.709 96.756,217.586 93.865,218.793 91.872 C 227.106 78.150,227.412 77.889,235.528 77.606 C 245.345 77.264,251.578 74.348,251.578 70.096 C 251.578 65.644,244.642 65.540,234.568 69.840 C 230.098 71.748,229.696 71.768,226.337 70.251 C 218.064 66.515,214.037 65.706,203.704 65.706 C 193.237 65.706,190.306 66.288,181.232 70.168 L 177.690 71.682 176.431 71.254 C 175.738 71.019,173.505 70.143,171.468 69.308 C 161.320 65.147,154.491 66.053,156.077 71.349 C 157.167 74.986,163.003 77.297,171.879 77.606 C 179.990 77.889,180.129 78.005,188.204 91.221 C 190.527 95.024,191.941 97.171,194.993 101.526 C 197.127 104.572,197.253 104.527,186.668 104.527 L 178.040 104.527 176.880 103.456 C 176.242 102.867,175.114 101.355,174.374 100.095 C 171.307 94.880,166.151 87.761,161.674 82.561 C 150.532 69.623,133.018 60.191,124.442 62.510 M209.328 73.911 C 211.214 74.262,214.609 74.888,216.872 75.303 C 221.878 76.221,221.674 76.164,221.674 76.641 C 221.674 76.855,219.914 78.511,217.764 80.321 C 213.331 84.051,207.374 90.044,205.362 92.798 C 204.618 93.817,203.872 94.650,203.704 94.650 C 203.536 94.650,202.789 93.817,202.045 92.798 C 200.017 90.022,194.054 84.025,189.630 80.312 C 185.664 76.983,185.119 76.227,186.560 76.046 C 186.935 75.999,190.082 75.417,193.553 74.753 C 197.023 74.089,200.171 73.496,200.549 73.436 C 202.467 73.128,206.197 73.330,209.328 73.911 M194.239 109.081 C 194.239 110.425,187.377 120.116,186.897 119.450 C 183.411 114.615,180.958 110.188,181.354 109.447 C 181.633 108.925,194.239 108.566,194.239 109.081 M226.011 109.790 C 226.058 110.195,225.904 110.897,225.669 111.351 C 225.217 112.225,220.661 119.316,220.297 119.712 C 219.968 120.069,213.169 109.924,213.169 109.076 C 213.169 108.982,216.039 108.939,219.547 108.980 L 225.926 109.053 226.011 109.790 M164.403 171.944 C 162.517 172.076,162.211 173.372,163.933 173.940 C 165.907 174.592,165.834 173.989,165.923 190.481 C 166.013 207.067,165.985 207.326,164.023 208.010 C 163.452 208.209,163.237 208.465,163.237 208.943 L 163.237 209.602 169.684 209.602 L 176.132 209.602 176.132 208.779 C 176.132 208.283,175.989 207.956,175.771 207.956 C 175.573 207.956,175.049 207.578,174.606 207.115 L 173.800 206.274 173.723 189.008 L 173.647 171.742 169.745 171.793 C 167.599 171.821,165.195 171.889,164.403 171.944 M179.355 174.616 C 179.532 178.071,179.127 180.292,177.995 182.077 L 177.193 183.341 178.212 184.385 L 179.231 185.429 180.852 184.181 C 184.995 180.994,186.367 177.666,185.558 172.771 L 185.388 171.742 182.298 171.742 L 179.209 171.742 179.355 174.616 M56.241 174.343 C 56.241 174.832,56.426 175.070,56.897 175.188 C 57.258 175.279,57.906 175.721,58.338 176.172 L 59.122 176.990 59.194 191.170 C 59.275 207.141,59.318 206.772,57.270 207.773 C 56.504 208.147,56.241 208.445,56.241 208.939 L 56.241 209.602 63.237 209.602 L 70.233 209.602 70.233 208.920 C 70.233 208.405,70.007 208.143,69.314 207.854 C 67.286 207.006,67.196 206.623,67.279 199.128 L 67.353 192.455 73.474 192.382 L 79.595 192.308 79.510 199.281 C 79.414 207.036,79.418 207.021,77.435 207.860 C 76.769 208.142,76.543 208.411,76.543 208.920 L 76.543 209.602 83.539 209.602 L 90.535 209.602 90.535 208.920 C 90.535 208.406,90.309 208.144,89.621 207.856 C 87.411 206.933,87.517 207.747,87.521 191.664 C 87.526 175.791,87.463 176.338,89.369 175.453 C 90.241 175.048,90.535 174.754,90.535 174.287 L 90.535 173.663 83.539 173.663 L 76.543 173.663 76.543 174.343 C 76.543 174.832,76.728 175.070,77.199 175.188 C 77.560 175.279,78.208 175.721,78.639 176.171 L 79.424 176.990 79.512 183.013 L 79.600 189.037 73.476 188.963 L 67.353 188.889 67.278 183.161 L 67.204 177.433 67.929 176.482 C 68.328 175.959,69.010 175.407,69.444 175.256 C 70.018 175.056,70.233 174.801,70.233 174.322 L 70.233 173.663 63.237 173.663 L 56.241 173.663 56.241 174.343 M124.554 176.756 C 124.554 181.022,123.164 184.050,120.931 184.652 C 118.978 185.178,119.402 186.557,121.517 186.557 L 123.143 186.557 123.231 195.699 L 123.320 204.842 124.147 206.458 C 126.360 210.783,132.880 211.264,138.069 207.485 L 139.375 206.533 138.538 205.477 L 137.701 204.421 136.735 205.077 C 135.416 205.972,133.543 206.236,132.653 205.653 C 131.082 204.624,131.009 204.175,130.915 194.993 L 130.828 186.557 134.550 186.557 L 138.272 186.557 138.272 185.048 L 138.272 183.539 134.568 183.539 L 130.864 183.539 130.864 180.110 L 130.864 176.680 127.709 176.680 C 125.974 176.680,124.554 176.714,124.554 176.756 M102.634 183.415 C 96.075 184.838,92.366 190.721,93.155 198.447 C 93.974 206.462,97.866 209.971,105.898 209.936 C 115.509 209.894,120.577 203.138,118.820 192.709 C 117.598 185.455,110.917 181.618,102.634 183.415 M147.296 183.386 C 139.435 185.028,135.391 193.971,138.505 202.830 C 141.303 210.791,153.065 212.629,160.112 206.207 L 161.454 204.983 160.393 203.887 L 159.331 202.790 157.859 203.990 C 152.348 208.478,145.985 205.813,145.491 198.810 L 145.323 196.433 153.753 196.433 L 162.184 196.433 161.999 194.582 C 161.105 185.590,155.861 181.597,147.296 183.386 M204.390 183.365 C 202.327 183.986,201.252 184.551,199.648 185.858 C 197.876 187.302,197.678 187.190,197.944 184.896 L 198.133 183.265 194.334 183.267 C 188.820 183.271,187.654 183.446,187.654 184.273 C 187.654 184.787,187.913 185.041,188.844 185.440 C 190.698 186.235,190.704 186.275,190.614 196.910 L 190.535 206.275 189.729 207.115 C 189.286 207.578,188.761 207.956,188.563 207.956 C 188.346 207.956,188.203 208.283,188.203 208.779 L 188.203 209.602 194.513 209.602 L 200.823 209.602 200.823 208.910 C 200.823 208.431,200.620 208.140,200.165 207.967 C 199.345 207.655,198.628 206.662,198.628 205.837 C 198.628 205.494,198.505 205.213,198.354 205.213 C 197.837 205.213,198.000 191.470,198.530 190.371 C 200.379 186.536,204.888 185.858,206.084 189.236 C 206.353 189.995,206.447 192.304,206.447 198.128 C 206.447 206.717,206.387 207.054,204.711 207.815 C 204.309 207.998,204.115 208.332,204.115 208.844 L 204.115 209.602 210.425 209.602 L 216.735 209.602 216.735 208.779 C 216.735 208.283,216.592 207.956,216.375 207.956 C 216.177 207.956,215.652 207.578,215.209 207.116 L 214.403 206.275 214.238 197.582 C 214.145 192.708,213.946 188.527,213.785 188.066 C 212.871 185.448,212.350 184.814,210.199 183.701 C 208.978 183.070,205.951 182.894,204.390 183.365 M108.647 186.699 C 112.304 190.202,111.802 204.956,107.956 207.042 C 106.010 208.098,102.340 206.488,102.330 204.574 C 102.329 204.397,102.145 203.900,101.920 203.469 C 100.568 200.877,100.618 191.436,101.998 188.731 C 103.589 185.615,106.566 184.705,108.647 186.699 M152.570 186.832 C 153.771 188.095,154.227 189.482,154.282 192.044 L 154.321 193.827 149.863 193.903 C 144.785 193.988,145.182 194.233,145.691 191.340 C 146.608 186.126,149.866 183.990,152.570 186.832 " stroke="none" fill="#0d1d2c" fill-rule="evenodd"></path><path id="path1" d="M218.381 174.343 C 218.381 174.833,218.566 175.070,219.041 175.189 C 219.404 175.281,219.991 175.663,220.344 176.040 L 220.988 176.724 221.070 190.625 C 221.115 198.271,221.079 204.924,220.990 205.410 C 220.789 206.510,219.605 207.956,218.906 207.956 C 218.506 207.956,218.381 208.152,218.381 208.779 L 218.381 209.602 225.240 209.602 L 232.099 209.602 232.099 208.779 C 232.099 208.208,231.965 207.956,231.660 207.956 C 231.418 207.956,230.801 207.536,230.288 207.023 L 229.355 206.091 229.355 199.204 L 229.355 192.318 235.408 192.318 L 241.461 192.318 241.375 199.337 L 241.289 206.356 240.393 207.156 C 239.901 207.596,239.314 207.956,239.090 207.956 C 238.821 207.956,238.683 208.234,238.683 208.779 L 238.683 209.602 245.542 209.602 L 252.401 209.602 252.401 208.779 C 252.401 208.208,252.266 207.956,251.962 207.956 C 251.720 207.956,251.103 207.536,250.590 207.023 L 249.657 206.091 249.657 191.788 C 249.657 175.833,249.659 175.810,251.352 175.374 C 252.064 175.191,252.282 174.978,252.350 174.401 L 252.437 173.663 245.560 173.663 L 238.683 173.663 238.683 174.343 C 238.683 174.833,238.868 175.070,239.343 175.189 C 241.153 175.644,241.281 176.123,241.381 182.875 L 241.472 189.026 235.414 189.026 L 229.355 189.026 229.355 183.149 L 229.355 177.271 230.085 176.403 C 230.487 175.926,231.104 175.426,231.457 175.292 C 231.896 175.125,232.099 174.829,232.099 174.355 L 232.099 173.663 225.240 173.663 L 218.381 173.663 218.381 174.343 M264.354 183.401 C 256.487 185.041,252.441 194.126,255.699 202.835 C 258.680 210.801,271.540 212.772,277.596 206.191 C 282.609 200.745,281.335 187.788,275.479 184.654 C 272.930 183.290,267.707 182.702,264.354 183.401 M299.040 183.366 C 297.326 183.864,296.276 184.447,294.531 185.869 C 292.798 187.280,292.605 187.168,292.869 184.896 L 293.058 183.265 289.091 183.265 C 283.417 183.265,282.579 183.409,282.579 184.388 C 282.579 185.057,282.732 185.209,283.695 185.497 C 285.623 186.075,285.628 186.106,285.538 196.829 L 285.460 206.266 284.774 207.003 C 284.396 207.408,283.810 207.847,283.471 207.978 C 283.056 208.138,282.853 208.445,282.853 208.910 L 282.853 209.602 289.300 209.602 L 295.748 209.602 295.748 208.950 C 295.748 208.480,295.511 208.199,294.903 207.947 C 293.201 207.242,293.150 206.986,293.053 198.561 L 292.965 190.924 293.678 189.708 C 294.904 187.616,297.864 186.457,299.604 187.388 C 300.975 188.122,301.091 188.873,301.184 197.578 C 301.279 206.455,301.191 207.064,299.712 207.738 C 299.228 207.958,299.040 208.263,299.040 208.823 L 299.040 209.602 305.213 209.602 L 311.385 209.602 311.385 208.910 C 311.385 208.427,311.182 208.139,310.714 207.962 C 309.175 207.377,309.062 206.814,308.957 199.235 C 308.815 188.961,309.532 187.106,313.643 187.106 C 316.640 187.106,317.010 188.330,317.010 198.265 C 317.010 206.701,316.945 207.055,315.273 207.815 C 314.871 207.998,314.678 208.332,314.678 208.844 L 314.678 209.602 320.988 209.602 L 327.298 209.602 327.298 208.839 C 327.298 208.249,327.117 208.008,326.499 207.775 C 324.867 207.159,324.740 206.471,324.634 197.668 C 324.506 186.995,324.155 185.551,321.312 184.004 C 317.908 182.151,313.228 183.058,309.789 186.237 L 308.378 187.541 307.481 186.032 C 305.970 183.488,302.446 182.375,299.040 183.366 M339.095 183.279 C 331.031 184.675,326.992 193.479,330.039 203.018 C 330.635 204.884,332.203 207.311,333.003 207.607 C 333.260 207.703,333.903 208.058,334.431 208.397 C 338.894 211.265,347.248 210.181,351.656 206.162 L 352.949 204.983 351.888 203.887 L 350.826 202.790 349.358 203.987 C 343.852 208.471,337.404 205.756,336.968 198.770 L 336.823 196.433 345.236 196.433 L 353.650 196.433 353.478 194.582 C 352.666 185.888,347.496 181.826,339.095 183.279 M270.380 186.840 C 274.350 190.688,273.534 207.133,269.373 207.133 C 269.092 207.133,268.861 207.257,268.861 207.407 C 268.861 208.208,266.311 207.342,264.945 206.076 C 262.284 203.612,262.016 190.276,264.562 187.043 C 265.844 185.415,268.803 185.312,270.380 186.840 M343.895 186.638 C 344.944 187.688,345.331 188.883,345.579 191.838 L 345.758 193.964 341.302 193.964 L 336.846 193.964 337.041 192.250 C 337.676 186.664,341.109 183.853,343.895 186.638 " stroke="none" fill="#a48c64" fill-rule="evenodd"></path><path id="path2" d="M201.180 65.500 C 202.659 65.549,205.005 65.549,206.393 65.499 C 207.781 65.449,206.571 65.409,203.704 65.409 C 200.837 65.410,199.701 65.450,201.180 65.500 M127.915 65.758 C 128.179 65.827,128.611 65.827,128.875 65.758 C 129.139 65.689,128.923 65.633,128.395 65.633 C 127.867 65.633,127.651 65.689,127.915 65.758 M278.532 65.758 C 278.796 65.827,279.228 65.827,279.492 65.758 C 279.757 65.689,279.540 65.633,279.012 65.633 C 278.484 65.633,278.268 65.689,278.532 65.758 M249.507 78.258 L 248.422 79.424 249.588 78.339 C 250.673 77.331,250.881 77.092,250.673 77.092 C 250.628 77.092,250.103 77.617,249.507 78.258 M158.013 78.532 C 158.686 79.249,159.272 79.835,159.316 79.835 C 159.522 79.835,159.305 79.589,158.093 78.452 L 156.790 77.229 158.013 78.532 M171.822 77.844 C 172.847 77.897,174.452 77.897,175.389 77.843 C 176.325 77.790,175.487 77.747,173.525 77.747 C 171.564 77.748,170.797 77.791,171.822 77.844 M232.179 77.844 C 233.204 77.897,234.808 77.897,235.745 77.843 C 236.682 77.790,235.844 77.747,233.882 77.747 C 231.920 77.748,231.154 77.791,232.179 77.844 M196.154 86.214 C 198.825 88.953,199.177 89.288,199.177 89.090 C 199.177 89.049,197.850 87.722,196.228 86.141 L 193.278 83.265 196.154 86.214 M210.832 86.488 L 208.093 89.300 210.905 86.562 C 212.452 85.056,213.717 83.791,213.717 83.750 C 213.717 83.552,213.375 83.876,210.832 86.488 M211.759 104.325 C 211.875 104.440,215.912 104.502,220.731 104.462 L 229.492 104.389 220.521 104.252 C 215.587 104.177,211.644 104.210,211.759 104.325 M182.390 104.458 C 184.852 104.503,188.802 104.503,191.170 104.458 C 193.537 104.412,191.523 104.375,186.694 104.375 C 181.866 104.375,179.929 104.412,182.390 104.458 M153.895 137.654 L 152.949 138.683 153.978 137.738 C 154.936 136.858,155.133 136.626,154.924 136.626 C 154.878 136.626,154.415 137.088,153.895 137.654 M252.401 136.711 C 252.401 136.759,252.802 137.160,253.292 137.603 L 254.184 138.409 253.378 137.517 C 252.627 136.686,252.401 136.499,252.401 136.711 M157.133 143.411 C 157.774 143.469,158.824 143.469,159.465 143.411 C 160.106 143.353,159.582 143.306,158.299 143.306 C 157.016 143.306,156.492 143.353,157.133 143.411 M247.813 143.412 C 248.535 143.469,249.646 143.468,250.283 143.410 C 250.919 143.353,250.329 143.306,248.971 143.307 C 247.613 143.308,247.092 143.355,247.813 143.412 M251.097 146.691 C 251.361 146.760,251.794 146.760,252.058 146.691 C 252.322 146.622,252.106 146.566,251.578 146.566 C 251.049 146.566,250.833 146.622,251.097 146.691 M59.586 173.593 C 61.501 173.640,64.711 173.640,66.719 173.593 C 68.727 173.546,67.160 173.508,63.237 173.508 C 59.314 173.508,57.671 173.546,59.586 173.593 M79.888 173.593 C 81.803 173.640,85.013 173.640,87.021 173.593 C 89.029 173.546,87.462 173.508,83.539 173.508 C 79.616 173.508,77.973 173.546,79.888 173.593 M69.273 175.294 C 68.971 175.417,68.477 175.811,68.176 176.168 L 67.627 176.818 68.269 176.272 C 68.622 175.973,69.239 175.581,69.641 175.403 C 70.458 175.040,70.130 174.943,69.273 175.294 M89.167 175.515 C 87.490 176.356,87.526 176.005,87.521 191.680 L 87.517 205.994 88.206 206.812 C 88.836 207.561,90.775 208.567,90.391 207.945 C 90.301 207.800,90.041 207.682,89.812 207.682 C 89.583 207.682,89.035 207.321,88.593 206.880 L 87.791 206.078 87.791 191.809 C 87.791 176.070,87.760 176.367,89.503 175.592 C 90.146 175.307,90.549 175.065,90.398 175.054 C 90.247 175.044,89.693 175.251,89.167 175.515 M67.338 177.305 C 67.264 177.498,67.237 180.183,67.279 183.272 L 67.354 188.889 67.490 182.922 C 67.624 177.076,67.611 176.594,67.338 177.305 M197.939 184.936 C 197.833 185.855,197.852 186.711,197.981 186.837 C 198.112 186.965,198.244 186.220,198.277 185.166 C 198.352 182.818,198.197 182.713,197.939 184.936 M119.680 185.734 C 119.680 186.262,119.736 186.478,119.805 186.214 C 119.874 185.950,119.874 185.518,119.805 185.254 C 119.736 184.990,119.680 185.206,119.680 185.734 M115.638 186.283 C 116.227 186.886,116.771 187.380,116.847 187.380 C 116.922 187.380,116.502 186.886,115.912 186.283 C 115.323 185.679,114.779 185.185,114.703 185.185 C 114.628 185.185,115.048 185.679,115.638 186.283 M101.265 191.023 C 100.926 192.969,100.889 198.907,101.203 200.823 C 101.315 201.502,101.351 200.075,101.283 197.652 C 101.207 194.916,101.283 192.538,101.485 191.378 C 101.664 190.351,101.756 189.457,101.690 189.391 C 101.624 189.325,101.433 190.059,101.265 191.023 M154.105 191.557 L 154.258 193.676 149.831 193.762 L 145.404 193.848 149.863 193.838 L 154.321 193.827 154.395 192.867 C 154.435 192.339,154.352 191.351,154.210 190.672 C 153.996 189.650,153.978 189.803,154.105 191.557 M198.203 191.020 C 198.130 191.211,198.103 194.513,198.144 198.359 L 198.218 205.350 198.354 198.011 C 198.430 193.974,198.456 190.672,198.414 190.672 C 198.371 190.672,198.277 190.829,198.203 191.020 M67.272 199.229 C 67.241 202.955,67.308 206.061,67.421 206.131 C 67.534 206.201,67.595 204.202,67.556 201.689 C 67.426 193.252,67.329 192.407,67.272 199.229 M162.172 195.675 L 162.140 196.426 153.704 196.502 L 145.267 196.579 153.712 196.643 C 162.701 196.712,162.668 196.717,162.332 195.421 C 162.248 195.094,162.193 195.181,162.172 195.675 M92.839 195.721 C 92.758 195.933,92.734 196.520,92.787 197.025 C 92.871 197.829,92.899 197.782,93.014 196.639 C 93.149 195.303,93.099 195.044,92.839 195.721 M139.881 205.846 C 140.329 206.496,140.909 207.206,141.172 207.423 C 141.434 207.641,141.118 207.109,140.469 206.241 C 139.088 204.394,138.705 204.137,139.881 205.846 M68.134 207.061 C 68.646 207.653,70.399 208.446,70.089 207.945 C 70.000 207.800,69.765 207.682,69.568 207.682 C 69.371 207.682,68.854 207.410,68.418 207.078 C 67.640 206.485,67.635 206.484,68.134 207.061 M199.263 207.311 C 199.748 207.886,200.977 208.427,200.670 207.931 C 200.585 207.794,200.379 207.682,200.211 207.682 C 200.043 207.682,199.649 207.466,199.336 207.202 C 198.770 206.726,198.770 206.727,199.263 207.311 M77.160 207.690 C 76.242 208.060,76.414 208.247,77.366 207.915 C 77.819 207.757,78.189 207.578,78.189 207.518 C 78.189 207.355,77.855 207.411,77.160 207.690 M163.923 207.829 C 163.234 208.161,163.212 208.198,163.786 208.060 C 164.163 207.969,164.589 207.785,164.733 207.651 C 165.088 207.319,164.893 207.362,163.923 207.829 M176.164 208.843 L 176.132 209.592 169.616 209.671 L 163.100 209.750 169.625 209.813 C 176.552 209.880,176.654 209.862,176.324 208.589 C 176.239 208.263,176.184 208.349,176.164 208.843 M188.039 209.053 L 188.066 209.739 194.445 209.747 L 200.823 209.755 194.531 209.674 C 188.267 209.593,188.238 209.589,188.126 208.980 C 188.029 208.456,188.017 208.467,188.039 209.053 M100.289 209.352 C 100.498 209.690,103.324 210.198,104.314 210.076 C 105.146 209.973,105.130 209.961,104.106 209.920 C 103.498 209.896,102.361 209.711,101.579 209.508 C 100.797 209.305,100.217 209.235,100.289 209.352 M110.288 209.502 L 109.053 209.879 110.127 209.751 C 110.718 209.680,111.329 209.494,111.485 209.338 C 111.642 209.181,111.714 209.070,111.646 209.089 C 111.578 209.109,110.967 209.295,110.288 209.502 M144.459 209.315 C 144.611 209.467,145.164 209.657,145.688 209.737 C 146.654 209.884,146.471 209.768,144.999 209.299 C 144.450 209.124,144.273 209.129,144.459 209.315 M153.909 209.511 C 153.162 209.755,151.484 209.927,149.657 209.946 C 147.062 209.973,146.870 210.004,148.285 210.164 C 150.702 210.437,155.281 209.805,155.281 209.197 C 155.281 209.118,155.250 209.066,155.213 209.081 C 155.175 209.096,154.588 209.289,153.909 209.511 M59.877 209.807 C 61.800 209.854,64.949 209.854,66.872 209.807 C 68.796 209.760,67.222 209.721,63.374 209.721 C 59.527 209.721,57.953 209.760,59.877 209.807 M79.888 209.807 C 81.803 209.854,85.013 209.854,87.021 209.807 C 89.029 209.760,87.462 209.722,83.539 209.722 C 79.616 209.722,77.973 209.760,79.888 209.807 M128.121 209.902 C 128.989 210.270,132.659 210.269,133.745 209.901 C 134.426 209.670,134.331 209.653,133.196 209.803 C 131.665 210.005,129.851 209.990,128.399 209.762 C 127.531 209.626,127.503 209.640,128.121 209.902 M207.202 209.807 C 208.975 209.855,211.876 209.855,213.649 209.807 C 215.422 209.759,213.971 209.720,210.425 209.720 C 206.879 209.720,205.429 209.759,207.202 209.807 M107.068 210.073 C 107.485 210.136,108.103 210.135,108.440 210.070 C 108.777 210.005,108.436 209.953,107.682 209.955 C 106.927 209.957,106.651 210.010,107.068 210.073 " stroke="none" fill="#7c848c" fill-rule="evenodd"></path><path id="path3" d="M285.687 65.706 C 285.688 66.763,285.738 67.161,285.797 66.592 C 285.856 66.023,285.855 65.159,285.795 64.672 C 285.734 64.184,285.686 64.650,285.687 65.706 M121.624 65.844 C 121.624 66.824,121.674 67.226,121.735 66.735 C 121.796 66.245,121.796 65.442,121.735 64.952 C 121.674 64.462,121.624 64.863,121.624 65.844 M196.780 65.492 C 197.197 65.555,197.814 65.553,198.152 65.488 C 198.489 65.423,198.148 65.371,197.394 65.373 C 196.639 65.375,196.363 65.429,196.780 65.492 M209.400 65.492 C 209.817 65.555,210.435 65.553,210.772 65.488 C 211.109 65.423,210.768 65.371,210.014 65.373 C 209.259 65.375,208.983 65.429,209.400 65.492 M161.111 66.581 C 161.375 66.650,161.807 66.650,162.071 66.581 C 162.335 66.512,162.119 66.456,161.591 66.456 C 161.063 66.456,160.847 66.512,161.111 66.581 M245.336 66.581 C 245.600 66.650,246.032 66.650,246.296 66.581 C 246.560 66.512,246.344 66.456,245.816 66.456 C 245.288 66.456,245.072 66.512,245.336 66.581 M155.630 70.233 C 155.630 70.912,155.684 71.190,155.749 70.850 C 155.815 70.511,155.815 69.955,155.749 69.616 C 155.684 69.276,155.630 69.554,155.630 70.233 M251.652 70.233 C 251.652 70.912,251.706 71.190,251.771 70.850 C 251.837 70.511,251.837 69.955,251.771 69.616 C 251.706 69.276,251.652 69.554,251.652 70.233 M156.104 72.239 C 156.104 72.287,156.505 72.688,156.996 73.131 L 157.888 73.937 157.082 73.045 C 156.331 72.214,156.104 72.028,156.104 72.239 M250.326 73.045 L 249.520 73.937 250.412 73.131 C 250.902 72.688,251.303 72.287,251.303 72.239 C 251.303 72.028,251.077 72.214,250.326 73.045 M203.090 73.448 C 203.507 73.511,204.125 73.509,204.462 73.444 C 204.799 73.379,204.458 73.327,203.704 73.329 C 202.949 73.332,202.673 73.385,203.090 73.448 M145.816 77.092 C 146.559 77.846,147.229 78.464,147.304 78.464 C 147.380 78.464,146.834 77.846,146.091 77.092 C 145.347 76.337,144.678 75.720,144.602 75.720 C 144.527 75.720,145.073 76.337,145.816 77.092 M155.281 75.806 C 155.281 75.853,155.682 76.254,156.173 76.698 L 157.064 77.503 156.259 76.612 C 155.508 75.781,155.281 75.594,155.281 75.806 M168.659 77.835 C 169.000 77.900,169.494 77.898,169.756 77.829 C 170.019 77.760,169.739 77.707,169.136 77.710 C 168.532 77.713,168.318 77.769,168.659 77.835 M237.654 77.830 C 237.918 77.899,238.350 77.899,238.615 77.830 C 238.879 77.761,238.663 77.704,238.134 77.704 C 237.606 77.704,237.390 77.761,237.654 77.830 M247.188 80.521 C 246.522 81.200,246.038 81.756,246.113 81.756 C 246.189 81.756,246.796 81.200,247.462 80.521 C 248.129 79.842,248.612 79.287,248.537 79.287 C 248.461 79.287,247.854 79.842,247.188 80.521 M160.219 80.796 C 160.731 81.324,161.212 81.756,161.287 81.756 C 161.363 81.756,161.006 81.324,160.494 80.796 C 159.982 80.267,159.501 79.835,159.426 79.835 C 159.351 79.835,159.708 80.267,160.219 80.796 M210.826 86.214 L 209.465 87.654 210.905 86.293 C 212.244 85.028,212.471 84.774,212.267 84.774 C 212.223 84.774,211.575 85.422,210.826 86.214 M196.296 86.145 C 196.886 86.749,197.430 87.243,197.505 87.243 C 197.580 87.243,197.160 86.749,196.571 86.145 C 195.981 85.542,195.437 85.048,195.362 85.048 C 195.286 85.048,195.707 85.542,196.296 86.145 M203.140 94.035 C 203.619 94.611,204.664 94.316,204.664 93.605 C 204.664 93.529,204.441 93.670,204.168 93.916 C 203.709 94.332,203.634 94.330,203.149 93.890 C 202.634 93.424,202.634 93.426,203.140 94.035 M256.310 127.761 C 256.574 127.830,257.006 127.830,257.270 127.761 C 257.534 127.692,257.318 127.636,256.790 127.636 C 256.262 127.636,256.046 127.692,256.310 127.761 M155.899 133.196 C 155.902 133.800,155.958 134.014,156.024 133.673 C 156.090 133.332,156.087 132.838,156.018 132.576 C 155.950 132.313,155.896 132.593,155.899 133.196 M251.378 133.333 C 251.378 134.012,251.431 134.290,251.497 133.951 C 251.562 133.611,251.562 133.056,251.497 132.716 C 251.431 132.377,251.378 132.654,251.378 133.333 M175.703 135.048 L 174.897 135.940 175.789 135.134 C 176.279 134.691,176.680 134.289,176.680 134.242 C 176.680 134.030,176.454 134.217,175.703 135.048 M230.727 134.242 C 230.727 134.289,231.128 134.691,231.619 135.134 L 232.510 135.940 231.705 135.048 C 230.953 134.217,230.727 134.030,230.727 134.242 M144.115 137.174 C 144.115 138.004,144.167 138.344,144.229 137.929 C 144.292 137.514,144.292 136.835,144.229 136.420 C 144.167 136.005,144.115 136.344,144.115 137.174 M263.179 137.037 C 263.181 137.791,263.234 138.068,263.297 137.651 C 263.360 137.234,263.358 136.616,263.293 136.279 C 263.228 135.941,263.177 136.283,263.179 137.037 M153.620 138.203 L 152.675 139.232 153.704 138.286 C 154.661 137.406,154.859 137.174,154.649 137.174 C 154.603 137.174,154.140 137.637,153.620 138.203 M145.405 142.473 C 145.405 142.520,145.806 142.921,146.296 143.364 L 147.188 144.170 146.382 143.278 C 145.631 142.447,145.405 142.261,145.405 142.473 M162.757 146.691 C 163.021 146.760,163.453 146.760,163.717 146.691 C 163.981 146.622,163.765 146.566,163.237 146.566 C 162.709 146.566,162.493 146.622,162.757 146.691 M243.690 146.691 C 243.954 146.760,244.386 146.760,244.650 146.691 C 244.914 146.622,244.698 146.566,244.170 146.566 C 243.642 146.566,243.426 146.622,243.690 146.691 M157.553 146.978 C 158.274 147.035,159.385 147.034,160.022 146.977 C 160.659 146.919,160.069 146.873,158.711 146.874 C 157.353 146.875,156.832 146.922,157.553 146.978 M247.539 146.978 C 248.260 147.035,249.372 147.034,250.008 146.977 C 250.645 146.919,250.055 146.873,248.697 146.874 C 247.339 146.875,246.818 146.922,247.539 146.978 M162.689 172.823 C 162.689 173.267,162.786 173.691,162.906 173.764 C 163.025 173.838,163.073 173.475,163.013 172.957 C 162.878 171.804,162.689 171.726,162.689 172.823 M225.202 173.594 L 232.160 173.672 232.042 174.476 C 231.977 174.918,232.025 175.217,232.148 175.141 C 232.272 175.064,232.373 174.639,232.373 174.195 L 232.373 173.388 225.309 173.452 L 218.244 173.516 225.202 173.594 M245.504 173.591 L 252.461 173.672 252.340 174.499 C 252.267 175.000,252.318 175.227,252.470 175.075 C 252.608 174.936,252.680 174.531,252.630 174.174 L 252.538 173.525 245.542 173.518 L 238.546 173.511 245.504 173.591 M163.786 174.133 C 164.012 174.217,164.444 174.399,164.746 174.538 C 165.286 174.786,165.286 174.783,164.762 174.364 C 164.469 174.129,164.037 173.947,163.802 173.959 C 163.433 173.977,163.431 174.001,163.786 174.133 M218.974 175.384 C 219.375 175.573,219.992 175.968,220.346 176.262 C 220.918 176.738,220.913 176.718,220.302 176.080 C 219.925 175.687,219.307 175.292,218.930 175.202 C 218.256 175.043,218.257 175.046,218.974 175.384 M239.276 175.384 C 239.677 175.573,240.294 175.968,240.647 176.262 C 241.219 176.738,241.215 176.718,240.604 176.080 C 240.226 175.687,239.609 175.292,239.232 175.202 C 238.558 175.043,238.559 175.046,239.276 175.384 M250.601 175.735 C 250.077 176.155,250.077 176.158,250.617 175.910 C 250.919 175.771,251.351 175.588,251.578 175.505 C 251.933 175.373,251.931 175.349,251.561 175.330 C 251.326 175.318,250.894 175.501,250.601 175.735 M58.170 176.222 L 58.848 176.999 58.924 191.149 C 58.997 204.793,58.980 205.339,58.454 206.422 C 57.930 207.501,57.929 207.520,58.438 206.908 C 59.263 205.915,59.289 205.371,59.203 190.747 L 59.122 176.967 58.307 176.206 L 57.491 175.446 58.170 176.222 M126.269 176.609 C 127.136 176.663,128.556 176.663,129.424 176.609 C 130.291 176.554,129.582 176.510,127.846 176.510 C 126.111 176.510,125.401 176.554,126.269 176.609 M79.229 183.135 L 79.308 188.741 73.330 188.823 L 67.353 188.906 73.388 188.897 L 79.424 188.889 79.498 183.422 C 79.539 180.415,79.478 177.859,79.361 177.742 C 79.245 177.625,79.185 180.052,79.229 183.135 M182.566 182.785 L 181.481 183.951 182.647 182.866 C 183.289 182.270,183.813 181.745,183.813 181.700 C 183.813 181.493,183.575 181.700,182.566 182.785 M103.018 183.038 C 102.263 183.181,101.533 183.409,101.395 183.546 C 101.257 183.682,101.627 183.661,102.218 183.498 C 102.808 183.335,104.403 183.110,105.761 182.998 C 108.219 182.795,108.221 182.794,106.310 182.786 C 105.254 182.781,103.772 182.894,103.018 183.038 M148.994 182.815 C 149.057 182.869,150.281 182.979,151.715 183.059 C 153.445 183.155,153.952 183.127,153.224 182.976 C 152.141 182.751,148.772 182.623,148.994 182.815 M204.801 182.957 C 204.348 183.054,205.274 183.133,206.859 183.133 C 208.443 183.133,209.369 183.054,208.916 182.957 C 208.464 182.860,207.538 182.781,206.859 182.781 C 206.180 182.781,205.254 182.860,204.801 182.957 M109.520 183.251 C 110.229 183.382,110.970 183.581,111.166 183.692 C 111.441 183.847,111.449 183.814,111.204 183.548 C 111.028 183.358,110.287 183.160,109.557 183.107 L 108.230 183.012 109.520 183.251 M191.714 183.195 C 192.966 183.246,194.941 183.245,196.104 183.194 C 197.266 183.143,196.241 183.101,193.827 183.101 C 191.413 183.102,190.462 183.144,191.714 183.195 M132.567 183.468 C 133.579 183.521,135.307 183.521,136.408 183.469 C 137.508 183.416,136.680 183.373,134.568 183.373 C 132.455 183.373,131.555 183.415,132.567 183.468 M293.068 184.088 C 293.068 184.616,293.124 184.832,293.193 184.568 C 293.262 184.304,293.262 183.872,293.193 183.608 C 293.124 183.344,293.068 183.560,293.068 184.088 M307.397 185.873 C 308.633 187.926,308.937 188.185,307.952 186.346 C 307.526 185.552,307.013 184.765,306.812 184.598 C 306.611 184.431,306.874 185.005,307.397 185.873 M350.206 186.008 C 350.795 186.612,351.339 187.106,351.415 187.106 C 351.490 187.106,351.069 186.612,350.480 186.008 C 349.891 185.405,349.347 184.911,349.271 184.911 C 349.196 184.911,349.616 185.405,350.206 186.008 M141.135 186.351 L 140.329 187.243 141.221 186.437 C 142.052 185.686,142.239 185.460,142.027 185.460 C 141.979 185.460,141.578 185.861,141.135 186.351 M332.630 186.351 L 331.824 187.243 332.716 186.437 C 333.547 185.686,333.734 185.460,333.522 185.460 C 333.475 185.460,333.073 185.861,332.630 186.351 M284.914 186.563 C 285.283 187.277,285.332 188.703,285.264 196.829 L 285.185 206.266 284.520 206.974 C 284.154 207.363,283.699 207.682,283.507 207.682 C 283.316 207.682,283.091 207.794,283.006 207.931 C 282.656 208.497,283.955 207.845,284.677 207.091 L 285.460 206.275 285.538 196.833 C 285.616 187.498,285.471 185.734,284.622 185.734 C 284.547 185.734,284.678 186.107,284.914 186.563 M107.819 186.094 C 107.819 186.141,108.220 186.543,108.711 186.986 L 109.602 187.791 108.796 186.900 C 108.045 186.069,107.819 185.882,107.819 186.094 M200.960 187.611 C 200.508 187.888,199.952 188.349,199.726 188.636 C 199.499 188.923,199.725 188.819,200.227 188.406 C 201.165 187.633,201.634 187.463,203.292 187.292 C 204.124 187.207,204.088 187.188,203.018 187.151 C 202.238 187.123,201.480 187.293,200.960 187.611 M190.398 196.755 L 190.261 206.266 189.575 207.043 L 188.889 207.819 189.639 207.158 C 190.676 206.244,190.704 205.927,190.614 196.022 L 190.535 187.243 190.398 196.755 M279.423 189.369 C 280.605 191.970,281.019 197.814,280.254 201.097 L 280.094 201.783 280.403 201.097 C 281.573 198.502,280.370 187.929,278.906 187.929 C 278.830 187.929,279.063 188.577,279.423 189.369 M310.134 188.820 L 309.328 189.712 310.219 188.906 C 311.051 188.155,311.237 187.929,311.025 187.929 C 310.978 187.929,310.577 188.330,310.134 188.820 M161.459 190.809 C 161.536 191.262,161.677 192.346,161.771 193.218 C 161.866 194.090,162.026 194.854,162.128 194.917 C 162.371 195.067,161.959 191.865,161.599 190.809 L 161.319 189.986 161.459 190.809 M93.584 191.271 C 93.168 192.540,92.776 195.614,93.051 195.444 C 93.176 195.367,93.278 194.906,93.278 194.419 C 93.278 193.933,93.454 192.860,93.667 192.035 C 94.101 190.364,94.046 189.860,93.584 191.271 M272.319 192.334 C 272.417 193.457,272.582 194.470,272.685 194.585 C 272.788 194.699,272.771 193.844,272.647 192.683 C 272.354 189.952,272.085 189.666,272.319 192.334 M293.118 198.354 C 293.135 204.166,293.231 206.331,293.492 206.787 C 293.837 207.391,295.409 208.386,295.645 208.150 C 295.711 208.084,295.386 207.873,294.923 207.681 C 293.481 207.084,293.428 206.791,293.255 198.354 L 293.095 190.535 293.118 198.354 M118.771 192.524 C 118.902 193.471,118.921 193.490,119.012 192.765 C 119.066 192.332,119.002 191.869,118.869 191.736 C 118.731 191.598,118.690 191.934,118.771 192.524 M79.405 198.903 C 79.405 202.449,79.444 203.899,79.492 202.126 C 79.539 200.353,79.539 197.452,79.492 195.679 C 79.444 193.906,79.405 195.357,79.405 198.903 M119.055 196.228 C 119.049 197.623,118.940 199.300,118.814 199.953 C 118.656 200.770,118.673 201.053,118.867 200.858 C 119.172 200.553,119.531 193.690,119.241 193.690 C 119.146 193.690,119.062 194.832,119.055 196.228 M339.026 193.894 C 340.271 193.945,342.308 193.945,343.553 193.894 C 344.798 193.843,343.779 193.802,341.289 193.802 C 338.800 193.802,337.781 193.843,339.026 193.894 M341.101 196.639 C 343.487 196.685,347.314 196.684,349.606 196.639 C 351.897 196.593,349.945 196.555,345.267 196.555 C 340.590 196.556,338.715 196.593,341.101 196.639 M92.999 199.259 L 93.131 200.686 93.222 199.483 C 93.273 198.821,93.213 198.179,93.090 198.056 C 92.967 197.932,92.926 198.474,92.999 199.259 M272.428 201.048 C 272.428 202.496,271.747 204.652,270.886 205.927 C 270.334 206.744,270.296 206.878,270.722 206.496 C 271.824 205.509,273.419 200.000,272.603 200.000 C 272.507 200.000,272.428 200.471,272.428 201.048 M158.015 203.652 C 157.331 204.284,157.023 204.619,157.329 204.397 C 157.636 204.175,158.202 203.713,158.587 203.370 L 159.287 202.746 160.357 203.841 L 161.426 204.936 160.485 205.966 L 159.544 206.996 160.632 205.967 L 161.720 204.937 160.490 203.720 L 159.259 202.503 158.015 203.652 M93.849 203.034 C 93.837 203.269,94.019 203.701,94.254 203.994 C 94.674 204.518,94.676 204.518,94.428 203.978 C 94.289 203.676,94.107 203.244,94.023 203.018 C 93.891 202.662,93.868 202.665,93.849 203.034 M256.995 205.624 C 257.307 206.077,257.972 206.818,258.472 207.270 C 259.143 207.878,259.067 207.735,258.180 206.722 C 256.561 204.871,256.324 204.652,256.995 205.624 M158.573 207.457 C 158.196 207.775,157.239 208.336,156.447 208.702 C 154.920 209.408,154.495 209.782,155.761 209.304 C 156.857 208.891,158.698 207.781,159.109 207.286 C 159.595 206.700,159.392 206.765,158.573 207.457 M309.826 207.311 C 310.311 207.886,311.539 208.427,311.232 207.931 C 311.148 207.794,310.941 207.682,310.774 207.682 C 310.606 207.682,310.212 207.466,309.898 207.202 C 309.333 206.726,309.332 206.727,309.826 207.311 M137.144 208.053 C 136.448 208.528,135.646 209.075,135.361 209.269 C 135.076 209.463,135.488 209.290,136.277 208.886 C 137.065 208.481,137.918 207.921,138.171 207.641 C 138.774 206.975,138.652 207.024,137.144 208.053 M267.182 207.484 C 267.315 207.616,267.777 207.680,268.211 207.626 C 268.936 207.536,268.917 207.517,267.970 207.386 C 267.380 207.304,267.044 207.346,267.182 207.484 M96.845 207.532 C 96.845 207.594,97.208 207.903,97.652 208.219 C 98.657 208.935,100.524 209.731,100.283 209.342 C 100.185 209.183,99.951 209.053,99.763 209.053 C 99.575 209.053,98.842 208.686,98.133 208.236 C 97.425 207.787,96.845 207.470,96.845 207.532 M203.948 208.073 C 203.865 208.289,203.843 208.752,203.900 209.102 C 203.975 209.571,204.039 209.467,204.141 208.711 C 204.284 207.645,204.208 207.394,203.948 208.073 M216.722 208.855 C 216.855 209.985,216.861 209.991,216.954 209.087 C 217.007 208.578,216.945 208.056,216.817 207.928 C 216.689 207.801,216.647 208.218,216.722 208.855 M125.013 208.252 C 125.354 208.664,127.023 209.715,127.023 209.517 C 127.023 209.453,126.499 209.055,125.857 208.632 C 125.216 208.209,124.836 208.038,125.013 208.252 M232.131 208.843 L 232.099 209.593 225.171 209.671 L 218.244 209.749 225.180 209.813 C 232.549 209.881,232.622 209.868,232.291 208.589 C 232.206 208.263,232.152 208.349,232.131 208.843 M252.432 208.843 L 252.401 209.593 245.473 209.671 L 238.546 209.749 245.482 209.813 C 252.851 209.881,252.924 209.868,252.593 208.589 C 252.508 208.263,252.453 208.349,252.432 208.843 M298.876 209.053 L 298.903 209.739 305.144 209.747 L 311.386 209.755 305.231 209.674 C 299.109 209.592,299.075 209.589,298.962 208.980 C 298.866 208.457,298.854 208.467,298.876 209.053 M327.329 208.843 L 327.298 209.592 320.919 209.671 L 314.540 209.750 320.928 209.813 C 327.708 209.880,327.819 209.860,327.490 208.589 C 327.405 208.263,327.350 208.349,327.329 208.843 M261.024 209.024 C 261.231 209.359,263.546 209.961,263.971 209.791 C 264.179 209.708,264.085 209.636,263.752 209.624 C 263.431 209.612,262.655 209.421,262.026 209.199 C 261.398 208.977,260.947 208.898,261.024 209.024 M335.119 209.017 C 335.607 209.486,338.343 210.152,339.625 210.115 C 340.762 210.082,340.713 210.059,339.095 209.862 C 338.114 209.742,336.757 209.445,336.079 209.201 C 335.402 208.957,334.970 208.874,335.119 209.017 M346.365 209.227 C 345.761 209.452,344.527 209.737,343.621 209.859 C 342.202 210.051,342.129 210.086,343.091 210.116 C 344.246 210.152,346.990 209.467,347.449 209.029 C 347.777 208.714,347.704 208.727,346.365 209.227 M271.331 209.634 C 270.802 209.772,269.012 209.906,267.353 209.933 C 264.854 209.973,264.595 210.013,265.844 210.166 C 267.468 210.365,271.429 210.038,272.474 209.619 C 273.282 209.295,272.597 209.304,271.331 209.634 M286.093 209.807 C 287.950 209.855,290.913 209.855,292.677 209.807 C 294.441 209.759,292.922 209.720,289.300 209.721 C 285.679 209.721,284.235 209.760,286.093 209.807 " stroke="none" fill="#8c949c" fill-rule="evenodd"></path></g></svg>